<svg data-v-423bf9ae="" xmlns="http://www.w3.org/2000/svg" viewBox="0 0 323.6626427793954 60" class="font"><!----><!----><!----><g data-v-423bf9ae="" id="defd6517-9500-4bf1-814a-5ae497ef3d95" fill="black" transform="matrix(4.559270569581267,0,0,4.559270569581267,-3.510634587145404,-18.19148937769127)"><path d="M4.87 14.52C6.57 14.52 7.74 13.66 8.40 12.25L7.13 11.48C6.78 12.43 6.03 13.10 4.87 13.10C3.37 13.10 2.45 12.01 2.45 10.21L2.45 8.72C2.45 6.92 3.37 5.82 4.87 5.82C6.01 5.82 6.69 6.43 7.03 7.35L8.36 6.62C7.70 5.17 6.57 4.41 4.87 4.41C2.32 4.41 0.77 6.19 0.77 9.46C0.77 12.74 2.32 14.52 4.87 14.52ZM11.49 14.35L11.49 9.70C11.49 8.95 12.17 8.54 13.37 8.54L13.97 8.54L13.97 7.07L13.57 7.07C12.40 7.07 11.77 7.73 11.56 8.47L11.49 8.47L11.49 7.07L9.97 7.07L9.97 14.35ZM18.47 11.35L18.00 12.94L17.93 12.94L17.51 11.35L16.06 7.07L14.53 7.07L17.18 14.67L16.76 15.90L15.53 15.90L15.53 17.15L16.41 17.15C17.54 17.15 17.98 16.77 18.33 15.79L21.39 7.07L19.92 7.07ZM22.65 17.15L24.18 17.15L24.18 13.15L24.25 13.15C24.56 14 25.33 14.52 26.29 14.52C28.13 14.52 29.19 13.10 29.19 10.71C29.19 8.32 28.13 6.90 26.29 6.90C25.33 6.90 24.56 7.41 24.25 8.27L24.18 8.27L24.18 7.07L22.65 7.07ZM25.83 13.20C24.91 13.20 24.18 12.70 24.18 11.96L24.18 9.46C24.18 8.72 24.91 8.22 25.83 8.22C26.88 8.22 27.58 8.96 27.58 10.08L27.58 11.34C27.58 12.46 26.88 13.20 25.83 13.20ZM34.20 14.35L34.20 13.10L32.79 13.10L32.79 8.32L34.31 8.32L34.31 7.07L32.79 7.07L32.79 5.08L31.42 5.08L31.42 6.36C31.42 6.86 31.25 7.07 30.74 7.07L30.13 7.07L30.13 8.32L31.26 8.32L31.26 12.77C31.26 13.76 31.82 14.35 32.87 14.35ZM38.77 14.52C40.80 14.52 42.11 13.03 42.11 10.71C42.11 8.39 40.80 6.90 38.77 6.90C36.74 6.90 35.42 8.39 35.42 10.71C35.42 13.03 36.74 14.52 38.77 14.52ZM38.77 13.26C37.73 13.26 37.03 12.61 37.03 11.33L37.03 10.09C37.03 8.81 37.73 8.16 38.77 8.16C39.80 8.16 40.50 8.81 40.50 10.09L40.50 11.33C40.50 12.61 39.80 13.26 38.77 13.26ZM53.23 14.35L54.81 14.35L54.81 4.58L53.23 4.58L53.23 8.69L48.80 8.69L48.80 4.58L47.22 4.58L47.22 14.35L48.80 14.35L48.80 10.09L53.23 10.09ZM61.52 14.35L63.04 14.35L63.04 7.07L61.52 7.07L61.52 11.94C61.52 12.80 60.75 13.20 59.96 13.20C59.02 13.20 58.56 12.61 58.56 11.51L58.56 7.07L57.04 7.07L57.04 11.70C57.04 13.50 57.92 14.52 59.42 14.52C60.62 14.52 61.19 13.86 61.46 13.15L61.52 13.15ZM65.23 14.35L66.75 14.35L66.75 13.15L66.82 13.15C67.13 14 67.90 14.52 68.87 14.52C70.70 14.52 71.76 13.10 71.76 10.71C71.76 8.32 70.70 6.90 68.87 6.90C67.90 6.90 67.13 7.41 66.82 8.27L66.75 8.27L66.75 3.99L65.23 3.99ZM68.40 13.20C67.48 13.20 66.75 12.70 66.75 11.96L66.75 9.46C66.75 8.72 67.48 8.22 68.40 8.22C69.45 8.22 70.15 8.96 70.15 10.08L70.15 11.34C70.15 12.46 69.45 13.20 68.40 13.20Z"></path></g><!----><!----></svg>